# xmcd CD database file
#
# Track frame offsets:
#	150
#	31172
#	46068
#	57220
#	115539
#	144395
#	157441
#	176848
#	203199
#	236348
#	246582
#	274548
#	305450
#
# Disc length: 4271 seconds
#
# Revision: 0
# Processed by: cddbd v1.4PL0 Copyright (c) Steve Scherf et al.
# Submitted via: CDex 1.51
#
DISCID=b210ad0d
DTITLE=The Slip - The Paradise Boston, MA 4/20/02 (Disk 3)
DYEAR=2002
DGENRE=Jazz
TTITLE0=Beetle to the Badlands ->
TTITLE1=Nathan Moore Lyric Verse ->
TTITLE2=Beetle to the Badlands
TTITLE3=Moral Decay ->
TTITLE4=Hallalujah ->
TTITLE5=Moral Decay
TTITLE6=Filler: There's a Better Place
TTITLE7=Angel's Come On Time
TTITLE8=New Line
TTITLE9=Dean Banter
TTITLE10=Hey There
TTITLE11=Lush World ->
TTITLE12=There Ain't No Butts About It
EXTD=YEAR: 2002
EXTT0=
EXTT1=
EXTT2=
EXTT3=
EXTT4=
EXTT5=
EXTT6=
EXTT7=
EXTT8=
EXTT9=
EXTT10=
EXTT11=
EXTT12=
PLAYORDER=
